<svg id="visual" viewBox="0 0 900 50" width="900" height="50" xmlns="http://www.w3.org/2000/svg" xmlns:xlink="http://www.w3.org/1999/xlink" version="1.1"><rect x="0" y="0" width="900" height="50" fill="#FAFAFA"></rect><path d="M0 18L21.5 16.8C43 15.7 86 13.3 128.8 11.3C171.7 9.3 214.3 7.7 257.2 13C300 18.3 343 30.7 385.8 36.7C428.7 42.7 471.3 42.3 514.2 37.2C557 32 600 22 642.8 22.3C685.7 22.7 728.3 33.3 771.2 34.2C814 35 857 26 878.5 21.5L900 17L900 51L878.5 51C857 51 814 51 771.2 51C728.3 51 685.7 51 642.8 51C600 51 557 51 514.2 51C471.3 51 428.7 51 385.8 51C343 51 300 51 257.2 51C214.3 51 171.7 51 128.8 51C86 51 43 51 21.5 51L0 51Z" fill="#EFEFEF" stroke-linecap="round" stroke-linejoin="miter"></path></svg>