<svg id="visual" viewBox="0 0 900 675" width="900" height="675" xmlns="http://www.w3.org/2000/svg" xmlns:xlink="http://www.w3.org/1999/xlink" version="1.1"><rect width="900" height="675" fill="#fff"></rect><g><g transform="translate(101 460)"><path d="M56.8 -38C66.4 -16.2 61.9 8.5 50.1 23.3C38.3 38.1 19.1 43.1 0 43.1C-19.1 43.1 -38.3 38.1 -45.5 25.9C-52.8 13.7 -48.3 -5.8 -38.7 -27.5C-29.1 -49.3 -14.6 -73.3 4.5 -75.9C23.6 -78.5 47.2 -59.7 56.8 -38Z" fill="none" stroke="#fff6e6" stroke-width="20"></path></g><g transform="translate(382 189)"><path d="M34.6 -21.5C38.9 -12.4 32.6 1.4 25 14.2C17.5 27 8.7 38.8 -0.4 39.1C-9.6 39.3 -19.2 28 -23.9 16.8C-28.7 5.6 -28.5 -5.4 -23.7 -14.7C-18.9 -24.1 -9.4 -31.9 2.8 -33.5C15.1 -35.1 30.2 -30.6 34.6 -21.5Z" fill="none" stroke="#fff6e6" stroke-width="20"></path></g><g transform="translate(339 410)"><path d="M14.8 -6.5C18.4 -2.3 19.9 5.1 17.1 8.3C14.4 11.5 7.2 10.5 1.9 9.4C-3.4 8.3 -6.7 7.1 -10.2 3.5C-13.7 -0.1 -17.3 -6.1 -15.6 -9.2C-13.9 -12.3 -7 -12.6 -0.7 -12.2C5.6 -11.8 11.2 -10.7 14.8 -6.5Z" fill="none" stroke="#fff6e6" stroke-width="20"></path></g><g transform="translate(621 239)"><path d="M24.7 -11.3C32.8 -0.3 40.6 13.8 36.4 25.3C32.3 36.8 16.1 45.6 0 45.6C-16.1 45.6 -32.2 36.7 -36.7 25.1C-41.2 13.4 -34.1 -1.1 -26 -12C-18 -23 -9 -30.4 -0.3 -30.2C8.3 -30.1 16.6 -22.2 24.7 -11.3Z" stroke="#fff6e6" fill="none" stroke-width="20"></path></g><g transform="translate(192 113)"><path d="M23.8 -17.1C25.9 -9.9 19.5 -1.2 14.1 8.4C8.7 17.9 4.4 28.3 -4 30.6C-12.3 32.9 -24.6 27.1 -26.6 19.5C-28.6 11.9 -20.3 2.5 -14.1 -7C-8 -16.5 -4 -26.1 3.4 -28C10.8 -30 21.6 -24.4 23.8 -17.1Z" stroke="#fff6e6" fill="none" stroke-width="20"></path></g><g transform="translate(717 546)"><path d="M13.4 -13.3C15.9 -3.3 15.6 2.8 12.9 7.9C10.2 13 5.1 17.2 -4 19.5C-13.1 21.8 -26.1 22.2 -35.1 13.5C-44.1 4.7 -48.9 -13.1 -42.4 -25.5C-35.8 -37.8 -17.9 -44.6 -6.3 -41C5.4 -37.3 10.8 -23.4 13.4 -13.3Z" stroke="#fff6e6" fill="none" stroke-width="20"></path></g><g transform="translate(470 569)"><path d="M15.9 -6.4C21 -0.3 25.8 8.7 23.1 19.4C20.4 30 10.2 42.4 -3 44.1C-16.2 45.9 -32.4 37 -37.7 24.8C-43 12.6 -37.3 -2.8 -29.2 -10.6C-21.1 -18.3 -10.5 -18.4 -2.6 -16.9C5.4 -15.4 10.8 -12.4 15.9 -6.4Z" stroke="#fff6e6" fill="none" stroke-width="20"></path></g><g transform="translate(786 110)"><path d="M30.5 -11.6C40.7 0.1 51 17.7 45.9 28.8C40.8 39.9 20.4 44.5 4.9 41.7C-10.6 38.8 -21.1 28.5 -29.4 15.6C-37.6 2.7 -43.6 -13 -38.3 -21.8C-33 -30.6 -16.5 -32.6 -3.2 -30.8C10.1 -28.9 20.3 -23.3 30.5 -11.6Z" stroke="#fff6e6" fill="none" stroke-width="20"></path></g></g></svg>