<svg id="visual" viewBox="0 0 900 250" width="900" height="250" xmlns="http://www.w3.org/2000/svg" xmlns:xlink="http://www.w3.org/1999/xlink" version="1.1"><rect width="900" height="250" fill="#fff"></rect><g><g transform="translate(426 175)"><path d="M26.8 -22.3C31.5 -7.3 29.9 4.5 24.4 13.3C18.8 22.2 9.4 28 -0.1 28.1C-9.6 28.1 -19.3 22.4 -25.6 13.1C-32 3.8 -35.1 -9.2 -30.3 -24.1C-25.5 -39.1 -12.7 -56.2 -0.8 -55.7C11.1 -55.2 22.1 -37.2 26.8 -22.3Z" fill="none" stroke="#fff6e6" stroke-width="20"></path></g><g transform="translate(19 92)"><path d="M9.8 -7.2C11.6 -2.5 11.2 1.9 9.2 6.9C7.2 11.9 3.6 17.4 -0.7 17.9C-5 18.3 -10.1 13.5 -14.5 7.1C-18.8 0.8 -22.5 -7.2 -20 -12.3C-17.5 -17.4 -8.7 -19.7 -2.4 -18.4C4 -17 8 -12 9.8 -7.2Z" fill="none" stroke="#fff6e6" stroke-width="20"></path></g><g transform="translate(887 180)"><path d="M19.3 -16.5C22.2 -6.1 19.8 2 15.7 14.6C11.6 27.3 5.8 44.5 -5.4 47.6C-16.7 50.8 -33.4 39.8 -38.6 26.5C-43.9 13.2 -37.7 -2.5 -29.3 -16C-21 -29.5 -10.5 -40.8 -1.2 -40.1C8.2 -39.5 16.3 -26.8 19.3 -16.5Z" fill="none" stroke="#fff6e6" stroke-width="20"></path></g><g transform="translate(528 29)"><path d="M6.4 -3.7C7.2 -2.3 5.9 0.2 4.5 2.3C3.1 4.3 1.6 5.9 0 5.9C-1.5 5.9 -3.1 4.3 -4.1 2.4C-5.2 0.5 -5.9 -1.6 -5.1 -3C-4.3 -4.4 -2.2 -5.1 0.3 -5.3C2.8 -5.4 5.6 -5.1 6.4 -3.7Z" fill="none" stroke="#fff6e6" stroke-width="20"></path></g><g transform="translate(669 124)"><path d="M11 -4.8C13.3 -2.5 13.3 2.6 11.1 6.5C8.8 10.4 4.4 13 0.6 12.7C-3.2 12.4 -6.5 9 -7.7 5.6C-8.9 2.3 -8.1 -0.9 -6.5 -2.8C-4.8 -4.7 -2.4 -5.3 1 -5.8C4.4 -6.4 8.8 -7 11 -4.8Z" fill="none" stroke="#fff6e6" stroke-width="20"></path></g></g></svg>