<svg id="visual" viewBox="0 0 900 600" width="900" height="600" xmlns="http://www.w3.org/2000/svg" xmlns:xlink="http://www.w3.org/1999/xlink" version="1.1"><g stroke-width="40" stroke-linejoin="bevel"><path d="M419 287L436 224L360 237Z" fill="#134693" stroke="#FFFFFF"></path><path d="M344 143L323 233L360 237Z" fill="#7d459c" stroke="#FFFFFF"></path><path d="M360 237L350 312L419 287Z" fill="#ff7146" stroke="#FFFFFF"></path><path d="M323 233L350 312L360 237Z" fill="#7d459c" stroke="#FFFFFF"></path><path d="M436 224L344 143L360 237Z" fill="#fca311" stroke="#FFFFFF"></path><path d="M292 327L356 361L350 312Z" fill="#dc4180" stroke="#FFFFFF"></path><path d="M350 312L356 361L419 287Z" fill="#c13f8e" stroke="#FFFFFF"></path><path d="M531 278L511 180L436 224Z" fill="#dc4180" stroke="#FFFFFF"></path><path d="M436 224L470 136L344 143Z" fill="#52479b" stroke="#FFFFFF"></path><path d="M531 278L436 224L419 287Z" fill="#ff8a2f" stroke="#FFFFFF"></path><path d="M511 180L470 136L436 224Z" fill="#ff7146" stroke="#FFFFFF"></path><path d="M471 369L531 278L419 287Z" fill="#ff7146" stroke="#FFFFFF"></path><path d="M323 233L292 327L350 312Z" fill="#f04b6f" stroke="#FFFFFF"></path><path d="M253 200L292 327L323 233Z" fill="#c13f8e" stroke="#FFFFFF"></path><path d="M356 361L471 369L419 287Z" fill="#c13f8e" stroke="#FFFFFF"></path><path d="M531 278L551 229L511 180Z" fill="#dc4180" stroke="#FFFFFF"></path><path d="M470 136L436 100L344 143Z" fill="#fe5b5b" stroke="#FFFFFF"></path><path d="M269 90L276 157L344 143Z" fill="#a14298" stroke="#FFFFFF"></path><path d="M344 143L276 157L323 233Z" fill="#ff8a2f" stroke="#FFFFFF"></path><path d="M276 157L253 200L323 233Z" fill="#fe5b5b" stroke="#FFFFFF"></path><path d="M292 327L318 400L356 361Z" fill="#c13f8e" stroke="#FFFFFF"></path><path d="M356 361L357 460L471 369Z" fill="#ff8a2f" stroke="#FFFFFF"></path><path d="M539 358L571 287L531 278Z" fill="#c13f8e" stroke="#FFFFFF"></path><path d="M531 278L571 287L551 229Z" fill="#f04b6f" stroke="#FFFFFF"></path><path d="M471 369L539 358L531 278Z" fill="#ff7146" stroke="#FFFFFF"></path><path d="M575 379L539 358L538 421Z" fill="#dc4180" stroke="#FFFFFF"></path><path d="M276 157L238 165L253 200Z" fill="#52479b" stroke="#FFFFFF"></path><path d="M253 200L227 327L292 327Z" fill="#134693" stroke="#FFFFFF"></path><path d="M243 97L238 165L276 157Z" fill="#a14298" stroke="#FFFFFF"></path><path d="M180 282L227 327L253 200Z" fill="#fca311" stroke="#FFFFFF"></path><path d="M292 327L236 403L318 400Z" fill="#fca311" stroke="#FFFFFF"></path><path d="M436 100L374 51L344 143Z" fill="#c13f8e" stroke="#FFFFFF"></path><path d="M236 403L327 440L318 400Z" fill="#ff7146" stroke="#FFFFFF"></path><path d="M318 400L327 440L356 361Z" fill="#fe5b5b" stroke="#FFFFFF"></path><path d="M374 51L269 90L344 143Z" fill="#ff7146" stroke="#FFFFFF"></path><path d="M571 287L609 248L551 229Z" fill="#134693" stroke="#FFFFFF"></path><path d="M614 143L540 59L511 180Z" fill="#52479b" stroke="#FFFFFF"></path><path d="M511 180L540 59L470 136Z" fill="#a14298" stroke="#FFFFFF"></path><path d="M470 136L540 59L436 100Z" fill="#a14298" stroke="#FFFFFF"></path><path d="M689 325L609 248L571 287Z" fill="#fca311" stroke="#FFFFFF"></path><path d="M327 440L357 460L356 361Z" fill="#fca311" stroke="#FFFFFF"></path><path d="M538 421L539 358L471 369Z" fill="#f04b6f" stroke="#FFFFFF"></path><path d="M539 358L575 379L571 287Z" fill="#a14298" stroke="#FFFFFF"></path><path d="M253 0L243 97L269 90Z" fill="#7d459c" stroke="#FFFFFF"></path><path d="M269 90L243 97L276 157Z" fill="#f04b6f" stroke="#FFFFFF"></path><path d="M473 457L538 421L471 369Z" fill="#f04b6f" stroke="#FFFFFF"></path><path d="M357 460L473 457L471 369Z" fill="#7d459c" stroke="#FFFFFF"></path><path d="M144 211L180 282L253 200Z" fill="#fe5b5b" stroke="#FFFFFF"></path><path d="M227 327L236 403L292 327Z" fill="#f04b6f" stroke="#FFFFFF"></path><path d="M144 211L253 200L238 165Z" fill="#c13f8e" stroke="#FFFFFF"></path><path d="M220 432L236 403L143 383Z" fill="#a14298" stroke="#FFFFFF"></path><path d="M287 535L390 497L357 460Z" fill="#52479b" stroke="#FFFFFF"></path><path d="M614 143L511 180L551 229Z" fill="#fe5b5b" stroke="#FFFFFF"></path><path d="M423 0L396 0L374 51Z" fill="#ff8a2f" stroke="#FFFFFF"></path><path d="M609 248L614 143L551 229Z" fill="#ff7146" stroke="#FFFFFF"></path><path d="M423 0L374 51L436 100Z" fill="#dc4180" stroke="#FFFFFF"></path><path d="M374 51L296 0L269 90Z" fill="#7d459c" stroke="#FFFFFF"></path><path d="M287 535L357 460L327 440Z" fill="#fca311" stroke="#FFFFFF"></path><path d="M357 460L390 497L473 457Z" fill="#c13f8e" stroke="#FFFFFF"></path><path d="M508 0L423 0L436 100Z" fill="#fe5b5b" stroke="#FFFFFF"></path><path d="M180 77L171 137L243 97Z" fill="#134693" stroke="#FFFFFF"></path><path d="M243 97L171 137L238 165Z" fill="#dc4180" stroke="#FFFFFF"></path><path d="M143 383L236 403L227 327Z" fill="#fe5b5b" stroke="#FFFFFF"></path><path d="M236 403L220 432L327 440Z" fill="#52479b" stroke="#FFFFFF"></path><path d="M171 137L144 211L238 165Z" fill="#a14298" stroke="#FFFFFF"></path><path d="M180 282L143 383L227 327Z" fill="#ff8a2f" stroke="#FFFFFF"></path><path d="M390 497L453 507L473 457Z" fill="#fe5b5b" stroke="#FFFFFF"></path><path d="M519 551L598 467L538 421Z" fill="#f04b6f" stroke="#FFFFFF"></path><path d="M396 0L296 0L374 51Z" fill="#52479b" stroke="#FFFFFF"></path><path d="M582 45L508 0L540 59Z" fill="#c13f8e" stroke="#FFFFFF"></path><path d="M540 59L508 0L436 100Z" fill="#ff7146" stroke="#FFFFFF"></path><path d="M614 143L582 45L540 59Z" fill="#dc4180" stroke="#FFFFFF"></path><path d="M253 0L180 77L243 97Z" fill="#ff7146" stroke="#FFFFFF"></path><path d="M62 132L74 212L144 211Z" fill="#fca311" stroke="#FFFFFF"></path><path d="M598 467L656 376L575 379Z" fill="#fe5b5b" stroke="#FFFFFF"></path><path d="M575 379L656 376L571 287Z" fill="#ff7146" stroke="#FFFFFF"></path><path d="M704 196L672 140L614 143Z" fill="#52479b" stroke="#FFFFFF"></path><path d="M598 467L575 379L538 421Z" fill="#a14298" stroke="#FFFFFF"></path><path d="M296 0L253 0L269 90Z" fill="#fe5b5b" stroke="#FFFFFF"></path><path d="M88 348L143 383L180 282Z" fill="#7d459c" stroke="#FFFFFF"></path><path d="M704 196L614 143L609 248Z" fill="#7d459c" stroke="#FFFFFF"></path><path d="M614 143L655 44L582 45Z" fill="#134693" stroke="#FFFFFF"></path><path d="M519 551L538 421L473 457Z" fill="#fe5b5b" stroke="#FFFFFF"></path><path d="M727 315L689 325L734 360Z" fill="#ff7146" stroke="#FFFFFF"></path><path d="M656 376L689 325L571 287Z" fill="#fe5b5b" stroke="#FFFFFF"></path><path d="M689 325L704 196L609 248Z" fill="#a14298" stroke="#FFFFFF"></path><path d="M232 534L287 535L220 432Z" fill="#134693" stroke="#FFFFFF"></path><path d="M220 432L287 535L327 440Z" fill="#134693" stroke="#FFFFFF"></path><path d="M446 600L519 551L453 507Z" fill="#fe5b5b" stroke="#FFFFFF"></path><path d="M582 45L590 0L508 0Z" fill="#f04b6f" stroke="#FFFFFF"></path><path d="M655 44L590 0L582 45Z" fill="#fca311" stroke="#FFFFFF"></path><path d="M446 600L453 507L390 497Z" fill="#f04b6f" stroke="#FFFFFF"></path><path d="M453 507L519 551L473 457Z" fill="#ff7146" stroke="#FFFFFF"></path><path d="M738 67L655 44L672 140Z" fill="#ff8a2f" stroke="#FFFFFF"></path><path d="M672 140L655 44L614 143Z" fill="#ff8a2f" stroke="#FFFFFF"></path><path d="M63 270L88 348L180 282Z" fill="#fca311" stroke="#FFFFFF"></path><path d="M143 538L232 534L220 432Z" fill="#dc4180" stroke="#FFFFFF"></path><path d="M63 270L180 282L144 211Z" fill="#fca311" stroke="#FFFFFF"></path><path d="M62 132L144 211L171 137Z" fill="#52479b" stroke="#FFFFFF"></path><path d="M120 432L220 432L143 383Z" fill="#a14298" stroke="#FFFFFF"></path><path d="M348 600L446 600L390 497Z" fill="#ff7146" stroke="#FFFFFF"></path><path d="M689 325L727 315L704 196Z" fill="#52479b" stroke="#FFFFFF"></path><path d="M734 360L689 325L656 376Z" fill="#dc4180" stroke="#FFFFFF"></path><path d="M88 348L120 432L143 383Z" fill="#fca311" stroke="#FFFFFF"></path><path d="M74 212L63 270L144 211Z" fill="#134693" stroke="#FFFFFF"></path><path d="M519 551L577 538L598 467Z" fill="#c13f8e" stroke="#FFFFFF"></path><path d="M598 467L692 442L656 376Z" fill="#a14298" stroke="#FFFFFF"></path><path d="M253 0L158 0L180 77Z" fill="#ff8a2f" stroke="#FFFFFF"></path><path d="M180 77L62 132L171 137Z" fill="#fca311" stroke="#FFFFFF"></path><path d="M646 507L692 442L598 467Z" fill="#c13f8e" stroke="#FFFFFF"></path><path d="M692 442L734 360L656 376Z" fill="#dc4180" stroke="#FFFFFF"></path><path d="M519 551L527 600L577 538Z" fill="#ff8a2f" stroke="#FFFFFF"></path><path d="M348 600L390 497L287 535Z" fill="#c13f8e" stroke="#FFFFFF"></path><path d="M297 600L348 600L287 535Z" fill="#134693" stroke="#FFFFFF"></path><path d="M722 0L656 0L655 44Z" fill="#a14298" stroke="#FFFFFF"></path><path d="M655 44L656 0L590 0Z" fill="#dc4180" stroke="#FFFFFF"></path><path d="M577 538L646 507L598 467Z" fill="#52479b" stroke="#FFFFFF"></path><path d="M612 600L646 507L577 538Z" fill="#dc4180" stroke="#FFFFFF"></path><path d="M49 84L62 132L180 77Z" fill="#ff7146" stroke="#FFFFFF"></path><path d="M74 212L0 244L63 270Z" fill="#52479b" stroke="#FFFFFF"></path><path d="M232 534L297 600L287 535Z" fill="#ff8a2f" stroke="#FFFFFF"></path><path d="M201 600L297 600L232 534Z" fill="#ff8a2f" stroke="#FFFFFF"></path><path d="M727 315L765 200L704 196Z" fill="#52479b" stroke="#FFFFFF"></path><path d="M704 196L777 163L672 140Z" fill="#c13f8e" stroke="#FFFFFF"></path><path d="M795 218L765 200L727 315Z" fill="#f04b6f" stroke="#FFFFFF"></path><path d="M446 600L527 600L519 551Z" fill="#52479b" stroke="#FFFFFF"></path><path d="M777 163L738 67L672 140Z" fill="#fe5b5b" stroke="#FFFFFF"></path><path d="M765 200L777 163L704 196Z" fill="#c13f8e" stroke="#FFFFFF"></path><path d="M801 177L777 163L765 200Z" fill="#7d459c" stroke="#FFFFFF"></path><path d="M68 504L143 538L120 432Z" fill="#fe5b5b" stroke="#FFFFFF"></path><path d="M120 432L143 538L220 432Z" fill="#7d459c" stroke="#FFFFFF"></path><path d="M67 471L120 432L88 348Z" fill="#52479b" stroke="#FFFFFF"></path><path d="M77 0L49 84L180 77Z" fill="#f04b6f" stroke="#FFFFFF"></path><path d="M0 148L0 244L74 212Z" fill="#52479b" stroke="#FFFFFF"></path><path d="M850 329L795 218L727 315Z" fill="#7d459c" stroke="#FFFFFF"></path><path d="M692 442L728 471L734 360Z" fill="#dc4180" stroke="#FFFFFF"></path><path d="M734 360L850 329L727 315Z" fill="#ff7146" stroke="#FFFFFF"></path><path d="M646 507L728 471L692 442Z" fill="#52479b" stroke="#FFFFFF"></path><path d="M744 521L728 471L646 507Z" fill="#7d459c" stroke="#FFFFFF"></path><path d="M0 148L74 212L62 132Z" fill="#fca311" stroke="#FFFFFF"></path><path d="M63 270L0 320L88 348Z" fill="#7d459c" stroke="#FFFFFF"></path><path d="M0 433L67 471L88 348Z" fill="#fe5b5b" stroke="#FFFFFF"></path><path d="M160 600L201 600L143 538Z" fill="#52479b" stroke="#FFFFFF"></path><path d="M143 538L201 600L232 534Z" fill="#7d459c" stroke="#FFFFFF"></path><path d="M847 0L722 0L738 67Z" fill="#134693" stroke="#FFFFFF"></path><path d="M738 67L722 0L655 44Z" fill="#7d459c" stroke="#FFFFFF"></path><path d="M795 218L801 177L765 200Z" fill="#7d459c" stroke="#FFFFFF"></path><path d="M777 163L847 64L738 67Z" fill="#c13f8e" stroke="#FFFFFF"></path><path d="M0 244L0 320L63 270Z" fill="#a14298" stroke="#FFFFFF"></path><path d="M158 0L77 0L180 77Z" fill="#fca311" stroke="#FFFFFF"></path><path d="M527 600L612 600L577 538Z" fill="#a14298" stroke="#FFFFFF"></path><path d="M0 101L0 148L62 132Z" fill="#fe5b5b" stroke="#FFFFFF"></path><path d="M0 101L62 132L49 84Z" fill="#c13f8e" stroke="#FFFFFF"></path><path d="M0 494L68 504L67 471Z" fill="#52479b" stroke="#FFFFFF"></path><path d="M67 471L68 504L120 432Z" fill="#7d459c" stroke="#FFFFFF"></path><path d="M0 320L0 378L88 348Z" fill="#ff7146" stroke="#FFFFFF"></path><path d="M99 600L160 600L143 538Z" fill="#52479b" stroke="#FFFFFF"></path><path d="M0 0L0 101L49 84Z" fill="#f04b6f" stroke="#FFFFFF"></path><path d="M612 600L651 600L646 507Z" fill="#a14298" stroke="#FFFFFF"></path><path d="M813 475L805 401L728 471Z" fill="#ff8a2f" stroke="#FFFFFF"></path><path d="M728 471L805 401L734 360Z" fill="#7d459c" stroke="#FFFFFF"></path><path d="M795 218L900 223L801 177Z" fill="#fe5b5b" stroke="#FFFFFF"></path><path d="M651 600L744 521L646 507Z" fill="#7d459c" stroke="#FFFFFF"></path><path d="M0 378L0 433L88 348Z" fill="#c13f8e" stroke="#FFFFFF"></path><path d="M900 381L850 329L805 401Z" fill="#a14298" stroke="#FFFFFF"></path><path d="M805 401L850 329L734 360Z" fill="#fe5b5b" stroke="#FFFFFF"></path><path d="M0 600L99 600L68 504Z" fill="#7d459c" stroke="#FFFFFF"></path><path d="M68 504L99 600L143 538Z" fill="#c13f8e" stroke="#FFFFFF"></path><path d="M848 534L813 475L744 521Z" fill="#fca311" stroke="#FFFFFF"></path><path d="M744 521L813 475L728 471Z" fill="#52479b" stroke="#FFFFFF"></path><path d="M0 433L0 494L67 471Z" fill="#fe5b5b" stroke="#FFFFFF"></path><path d="M77 0L0 0L49 84Z" fill="#ff8a2f" stroke="#FFFFFF"></path><path d="M900 129L847 64L801 177Z" fill="#52479b" stroke="#FFFFFF"></path><path d="M801 177L847 64L777 163Z" fill="#ff7146" stroke="#FFFFFF"></path><path d="M900 285L795 218L850 329Z" fill="#fe5b5b" stroke="#FFFFFF"></path><path d="M900 285L900 223L795 218Z" fill="#dc4180" stroke="#FFFFFF"></path><path d="M900 381L900 285L850 329Z" fill="#fe5b5b" stroke="#FFFFFF"></path><path d="M900 0L847 0L847 64Z" fill="#f04b6f" stroke="#FFFFFF"></path><path d="M847 64L847 0L738 67Z" fill="#fca311" stroke="#FFFFFF"></path><path d="M900 223L900 129L801 177Z" fill="#fca311" stroke="#FFFFFF"></path><path d="M651 600L777 600L744 521Z" fill="#f04b6f" stroke="#FFFFFF"></path><path d="M900 473L900 381L805 401Z" fill="#7d459c" stroke="#FFFFFF"></path><path d="M900 473L805 401L813 475Z" fill="#134693" stroke="#FFFFFF"></path><path d="M900 129L900 86L847 64Z" fill="#7d459c" stroke="#FFFFFF"></path><path d="M777 600L848 534L744 521Z" fill="#f04b6f" stroke="#FFFFFF"></path><path d="M0 494L0 600L68 504Z" fill="#134693" stroke="#FFFFFF"></path><path d="M848 534L900 473L813 475Z" fill="#c13f8e" stroke="#FFFFFF"></path><path d="M900 86L900 0L847 64Z" fill="#dc4180" stroke="#FFFFFF"></path><path d="M900 600L900 507L848 534Z" fill="#52479b" stroke="#FFFFFF"></path><path d="M848 534L900 507L900 473Z" fill="#dc4180" stroke="#FFFFFF"></path><path d="M777 600L846 600L848 534Z" fill="#fe5b5b" stroke="#FFFFFF"></path><path d="M846 600L900 600L848 534Z" fill="#ff7146" stroke="#FFFFFF"></path></g></svg>