<svg id="visual" viewBox="0 0 600 900" width="600" height="900" xmlns="http://www.w3.org/2000/svg" xmlns:xlink="http://www.w3.org/1999/xlink" version="1.1"><path d="M0 217L120 226L240 109L360 136L480 289L600 244L600 0L480 0L360 0L240 0L120 0L0 0Z" fill="#00cc8e"></path><path d="M0 361L120 433L240 370L360 361L480 451L600 370L600 242L480 287L360 134L240 107L120 224L0 215Z" fill="#00c38c"></path><path d="M0 388L120 469L240 397L360 415L480 478L600 415L600 368L480 449L360 359L240 368L120 431L0 359Z" fill="#00b98a"></path><path d="M0 478L120 586L240 496L360 514L480 532L600 487L600 413L480 476L360 413L240 395L120 467L0 386Z" fill="#00b087"></path><path d="M0 514L120 622L240 532L360 586L480 586L600 559L600 485L480 530L360 512L240 494L120 584L0 476Z" fill="#00a784"></path><path d="M0 613L120 694L240 586L360 676L480 640L600 631L600 557L480 584L360 584L240 530L120 620L0 512Z" fill="#009e80"></path><path d="M0 694L120 766L240 685L360 748L480 730L600 721L600 629L480 638L360 674L240 584L120 692L0 611Z" fill="#00957c"></path><path d="M0 766L120 829L240 748L360 802L480 784L600 757L600 719L480 728L360 746L240 683L120 764L0 692Z" fill="#008c78"></path><path d="M0 901L120 901L240 901L360 901L480 901L600 901L600 755L480 782L360 800L240 746L120 827L0 764Z" fill="#038373"></path></svg>