<svg id="visual" viewBox="0 0 900 600" width="900" height="600" xmlns="http://www.w3.org/2000/svg" xmlns:xlink="http://www.w3.org/1999/xlink" version="1.1"><g stroke-width="4" stroke-linejoin="bevel"><path d="M460 301L393 303L440 332Z" fill="#f5f5f5" stroke="#fca311"></path><path d="M460 301L414 260L393 303Z" fill="#ffffff" stroke="#fca311"></path><path d="M460 301L435 243L414 260Z" fill="#fcfcfc" stroke="#fca311"></path><path d="M393 303L417 362L440 332Z" fill="#ffffff" stroke="#fca311"></path><path d="M356 250L393 303L414 260Z" fill="#f8f8f8" stroke="#fca311"></path><path d="M356 250L349 292L393 303Z" fill="#ffffff" stroke="#fca311"></path><path d="M393 303L353 353L417 362Z" fill="#ffffff" stroke="#fca311"></path><path d="M485 365L506 285L460 301Z" fill="#ffffff" stroke="#fca311"></path><path d="M460 301L506 285L435 243Z" fill="#ffffff" stroke="#fca311"></path><path d="M485 365L460 301L440 332Z" fill="#fcfcfc" stroke="#fca311"></path><path d="M417 362L451 381L440 332Z" fill="#f1f1f1" stroke="#fca311"></path><path d="M451 381L485 365L440 332Z" fill="#ffffff" stroke="#fca311"></path><path d="M411 200L356 250L414 260Z" fill="#ffffff" stroke="#fca311"></path><path d="M514 252L460 219L435 243Z" fill="#ffffff" stroke="#fca311"></path><path d="M435 243L411 200L414 260Z" fill="#ffffff" stroke="#fca311"></path><path d="M349 292L353 353L393 303Z" fill="#ffffff" stroke="#fca311"></path><path d="M417 362L384 409L451 381Z" fill="#ffffff" stroke="#fca311"></path><path d="M506 285L514 252L435 243Z" fill="#ffffff" stroke="#fca311"></path><path d="M460 219L411 200L435 243Z" fill="#fcfcfc" stroke="#fca311"></path><path d="M485 365L538 298L506 285Z" fill="#eeeeee" stroke="#fca311"></path><path d="M506 285L540 268L514 252Z" fill="#eeeeee" stroke="#fca311"></path><path d="M317 249L314 292L349 292Z" fill="#f8f8f8" stroke="#fca311"></path><path d="M349 292L314 292L353 353Z" fill="#fcfcfc" stroke="#fca311"></path><path d="M411 200L352 216L356 250Z" fill="#ffffff" stroke="#fca311"></path><path d="M356 250L317 249L349 292Z" fill="#ffffff" stroke="#fca311"></path><path d="M451 381L480 402L485 365Z" fill="#ffffff" stroke="#fca311"></path><path d="M485 365L541 358L538 298Z" fill="#ffffff" stroke="#fca311"></path><path d="M464 431L480 402L451 381Z" fill="#ffffff" stroke="#fca311"></path><path d="M335 388L384 409L353 353Z" fill="#eeeeee" stroke="#fca311"></path><path d="M353 353L384 409L417 362Z" fill="#f1f1f1" stroke="#fca311"></path><path d="M538 298L540 268L506 285Z" fill="#f1f1f1" stroke="#fca311"></path><path d="M352 216L317 249L356 250Z" fill="#ffffff" stroke="#fca311"></path><path d="M514 252L510 212L460 219Z" fill="#ffffff" stroke="#fca311"></path><path d="M460 219L469 144L411 200Z" fill="#eeeeee" stroke="#fca311"></path><path d="M540 268L510 212L514 252Z" fill="#f8f8f8" stroke="#fca311"></path><path d="M318 384L335 388L353 353Z" fill="#ffffff" stroke="#fca311"></path><path d="M480 402L541 358L485 365Z" fill="#ffffff" stroke="#fca311"></path><path d="M538 298L590 283L540 268Z" fill="#ffffff" stroke="#fca311"></path><path d="M384 409L464 431L451 381Z" fill="#ffffff" stroke="#fca311"></path><path d="M480 402L535 442L541 358Z" fill="#ffffff" stroke="#fca311"></path><path d="M283 342L318 384L353 353Z" fill="#ffffff" stroke="#fca311"></path><path d="M349 466L408 464L384 409Z" fill="#ffffff" stroke="#fca311"></path><path d="M255 334L283 342L314 292Z" fill="#eeeeee" stroke="#fca311"></path><path d="M314 292L283 342L353 353Z" fill="#ffffff" stroke="#fca311"></path><path d="M499 499L497 441L464 431Z" fill="#f5f5f5" stroke="#fca311"></path><path d="M464 431L497 441L480 402Z" fill="#ffffff" stroke="#fca311"></path><path d="M411 200L345 162L352 216Z" fill="#f5f5f5" stroke="#fca311"></path><path d="M352 216L298 185L317 249Z" fill="#ffffff" stroke="#fca311"></path><path d="M240 302L255 334L314 292Z" fill="#ffffff" stroke="#fca311"></path><path d="M418 138L345 162L411 200Z" fill="#eeeeee" stroke="#fca311"></path><path d="M583 410L583 341L541 358Z" fill="#ffffff" stroke="#fca311"></path><path d="M541 358L583 341L538 298Z" fill="#fcfcfc" stroke="#fca311"></path><path d="M540 268L546 183L510 212Z" fill="#ffffff" stroke="#fca311"></path><path d="M510 212L469 144L460 219Z" fill="#ffffff" stroke="#fca311"></path><path d="M469 144L418 138L411 200Z" fill="#eeeeee" stroke="#fca311"></path><path d="M349 466L384 409L335 388Z" fill="#ffffff" stroke="#fca311"></path><path d="M384 409L408 464L464 431Z" fill="#ffffff" stroke="#fca311"></path><path d="M583 341L590 283L538 298Z" fill="#ffffff" stroke="#fca311"></path><path d="M510 212L501 140L469 144Z" fill="#ffffff" stroke="#fca311"></path><path d="M584 191L546 183L540 268Z" fill="#f1f1f1" stroke="#fca311"></path><path d="M345 162L298 185L352 216Z" fill="#f5f5f5" stroke="#fca311"></path><path d="M240 302L314 292L254 230Z" fill="#fcfcfc" stroke="#fca311"></path><path d="M236 409L280 457L318 384Z" fill="#ffffff" stroke="#fca311"></path><path d="M280 457L349 466L335 388Z" fill="#fcfcfc" stroke="#fca311"></path><path d="M499 499L535 442L497 441Z" fill="#ffffff" stroke="#fca311"></path><path d="M497 441L535 442L480 402Z" fill="#fcfcfc" stroke="#fca311"></path><path d="M546 183L501 140L510 212Z" fill="#ffffff" stroke="#fca311"></path><path d="M469 144L437 98L418 138Z" fill="#ffffff" stroke="#fca311"></path><path d="M535 442L565 417L541 358Z" fill="#ffffff" stroke="#fca311"></path><path d="M280 457L335 388L318 384Z" fill="#ffffff" stroke="#fca311"></path><path d="M254 230L314 292L317 249Z" fill="#f5f5f5" stroke="#fca311"></path><path d="M298 185L254 230L317 249Z" fill="#ffffff" stroke="#fca311"></path><path d="M590 283L602 235L540 268Z" fill="#ffffff" stroke="#fca311"></path><path d="M546 183L554 130L501 140Z" fill="#ffffff" stroke="#fca311"></path><path d="M632 250L602 235L590 283Z" fill="#ffffff" stroke="#fca311"></path><path d="M584 432L583 410L565 417Z" fill="#f8f8f8" stroke="#fca311"></path><path d="M565 417L583 410L541 358Z" fill="#fcfcfc" stroke="#fca311"></path><path d="M645 305L632 250L590 283Z" fill="#ffffff" stroke="#fca311"></path><path d="M602 235L584 191L540 268Z" fill="#f8f8f8" stroke="#fca311"></path><path d="M508 87L469 144L501 140Z" fill="#fcfcfc" stroke="#fca311"></path><path d="M508 87L437 98L469 144Z" fill="#ffffff" stroke="#fca311"></path><path d="M418 138L348 83L345 162Z" fill="#f8f8f8" stroke="#fca311"></path><path d="M294 134L256 181L298 185Z" fill="#f1f1f1" stroke="#fca311"></path><path d="M535 442L584 432L565 417Z" fill="#f5f5f5" stroke="#fca311"></path><path d="M645 305L590 283L583 341Z" fill="#ffffff" stroke="#fca311"></path><path d="M294 134L298 185L345 162Z" fill="#f1f1f1" stroke="#fca311"></path><path d="M298 185L256 181L254 230Z" fill="#ffffff" stroke="#fca311"></path><path d="M254 230L197 282L240 302Z" fill="#ffffff" stroke="#fca311"></path><path d="M460 513L499 499L464 431Z" fill="#ffffff" stroke="#fca311"></path><path d="M535 442L556 511L584 432Z" fill="#f5f5f5" stroke="#fca311"></path><path d="M460 513L464 431L408 464Z" fill="#ffffff" stroke="#fca311"></path><path d="M645 305L583 341L666 334Z" fill="#ffffff" stroke="#fca311"></path><path d="M602 235L638 210L584 191Z" fill="#ffffff" stroke="#fca311"></path><path d="M349 466L416 513L408 464Z" fill="#ffffff" stroke="#fca311"></path><path d="M348 83L294 134L345 162Z" fill="#ffffff" stroke="#fca311"></path><path d="M595 135L554 130L584 191Z" fill="#ffffff" stroke="#fca311"></path><path d="M584 191L554 130L546 183Z" fill="#ffffff" stroke="#fca311"></path><path d="M236 409L318 384L283 342Z" fill="#ffffff" stroke="#fca311"></path><path d="M349 466L333 511L416 513Z" fill="#eeeeee" stroke="#fca311"></path><path d="M236 409L283 342L255 334Z" fill="#ffffff" stroke="#fca311"></path><path d="M416 513L460 513L408 464Z" fill="#ffffff" stroke="#fca311"></path><path d="M666 334L583 341L653 388Z" fill="#f1f1f1" stroke="#fca311"></path><path d="M186 361L236 409L255 334Z" fill="#ffffff" stroke="#fca311"></path><path d="M388 61L395 81L440 48Z" fill="#eeeeee" stroke="#fca311"></path><path d="M437 98L395 81L418 138Z" fill="#ffffff" stroke="#fca311"></path><path d="M554 130L539 107L501 140Z" fill="#ffffff" stroke="#fca311"></path><path d="M236 409L268 462L280 457Z" fill="#ffffff" stroke="#fca311"></path><path d="M313 509L333 511L349 466Z" fill="#ffffff" stroke="#fca311"></path><path d="M539 107L508 87L501 140Z" fill="#eeeeee" stroke="#fca311"></path><path d="M313 509L349 466L280 457Z" fill="#f5f5f5" stroke="#fca311"></path><path d="M186 231L197 282L254 230Z" fill="#ffffff" stroke="#fca311"></path><path d="M240 302L186 361L255 334Z" fill="#ffffff" stroke="#fca311"></path><path d="M688 230L638 210L632 250Z" fill="#ffffff" stroke="#fca311"></path><path d="M632 250L638 210L602 235Z" fill="#ffffff" stroke="#fca311"></path><path d="M554 130L602 87L539 107Z" fill="#ffffff" stroke="#fca311"></path><path d="M395 81L348 83L418 138Z" fill="#ffffff" stroke="#fca311"></path><path d="M261 491L313 509L280 457Z" fill="#ffffff" stroke="#fca311"></path><path d="M638 210L595 135L584 191Z" fill="#ffffff" stroke="#fca311"></path><path d="M548 32L491 41L508 87Z" fill="#eeeeee" stroke="#fca311"></path><path d="M653 388L583 341L583 410Z" fill="#f5f5f5" stroke="#fca311"></path><path d="M645 305L684 282L632 250Z" fill="#f8f8f8" stroke="#fca311"></path><path d="M650 452L583 410L584 432Z" fill="#ffffff" stroke="#fca311"></path><path d="M650 452L653 388L583 410Z" fill="#ffffff" stroke="#fca311"></path><path d="M440 48L395 81L437 98Z" fill="#f8f8f8" stroke="#fca311"></path><path d="M395 81L388 61L348 83Z" fill="#fcfcfc" stroke="#fca311"></path><path d="M295 58L280 106L348 83Z" fill="#f1f1f1" stroke="#fca311"></path><path d="M348 83L280 106L294 134Z" fill="#ffffff" stroke="#fca311"></path><path d="M294 134L238 131L256 181Z" fill="#ffffff" stroke="#fca311"></path><path d="M181 212L186 231L254 230Z" fill="#ffffff" stroke="#fca311"></path><path d="M556 530L556 511L499 499Z" fill="#f8f8f8" stroke="#fca311"></path><path d="M499 499L556 511L535 442Z" fill="#f5f5f5" stroke="#fca311"></path><path d="M166 309L186 361L240 302Z" fill="#f5f5f5" stroke="#fca311"></path><path d="M211 495L261 491L268 462Z" fill="#f5f5f5" stroke="#fca311"></path><path d="M181 212L254 230L256 181Z" fill="#f5f5f5" stroke="#fca311"></path><path d="M197 282L166 309L240 302Z" fill="#ffffff" stroke="#fca311"></path><path d="M198 419L268 462L236 409Z" fill="#ffffff" stroke="#fca311"></path><path d="M268 462L261 491L280 457Z" fill="#fcfcfc" stroke="#fca311"></path><path d="M416 513L456 553L460 513Z" fill="#f5f5f5" stroke="#fca311"></path><path d="M460 513L488 569L499 499Z" fill="#ffffff" stroke="#fca311"></path><path d="M412 566L456 553L416 513Z" fill="#ffffff" stroke="#fca311"></path><path d="M412 566L416 513L347 562Z" fill="#ffffff" stroke="#fca311"></path><path d="M491 41L437 98L508 87Z" fill="#fcfcfc" stroke="#fca311"></path><path d="M491 41L440 48L437 98Z" fill="#ffffff" stroke="#fca311"></path><path d="M280 106L238 131L294 134Z" fill="#f5f5f5" stroke="#fca311"></path><path d="M186 361L198 419L236 409Z" fill="#f5f5f5" stroke="#fca311"></path><path d="M238 131L219 148L256 181Z" fill="#f5f5f5" stroke="#fca311"></path><path d="M683 335L684 282L666 334Z" fill="#ffffff" stroke="#fca311"></path><path d="M666 334L684 282L645 305Z" fill="#ffffff" stroke="#fca311"></path><path d="M638 210L667 165L595 135Z" fill="#f1f1f1" stroke="#fca311"></path><path d="M653 388L683 335L666 334Z" fill="#ffffff" stroke="#fca311"></path><path d="M388 61L341 56L348 83Z" fill="#ffffff" stroke="#fca311"></path><path d="M280 106L245 101L238 131Z" fill="#ffffff" stroke="#fca311"></path><path d="M388 0L341 56L388 61Z" fill="#ffffff" stroke="#fca311"></path><path d="M148 231L166 309L197 282Z" fill="#ffffff" stroke="#fca311"></path><path d="M137 390L161 446L198 419Z" fill="#f1f1f1" stroke="#fca311"></path><path d="M219 148L181 212L256 181Z" fill="#ffffff" stroke="#fca311"></path><path d="M186 231L148 231L197 282Z" fill="#ffffff" stroke="#fca311"></path><path d="M488 569L556 530L499 499Z" fill="#ffffff" stroke="#fca311"></path><path d="M607 515L650 452L584 432Z" fill="#ffffff" stroke="#fca311"></path><path d="M347 562L333 511L297 564Z" fill="#fcfcfc" stroke="#fca311"></path><path d="M347 562L416 513L333 511Z" fill="#ffffff" stroke="#fca311"></path><path d="M456 553L488 569L460 513Z" fill="#ffffff" stroke="#fca311"></path><path d="M548 32L508 87L539 107Z" fill="#f8f8f8" stroke="#fca311"></path><path d="M440 48L388 0L388 61Z" fill="#eeeeee" stroke="#fca311"></path><path d="M607 515L584 432L556 511Z" fill="#ffffff" stroke="#fca311"></path><path d="M653 388L709 411L683 335Z" fill="#ffffff" stroke="#fca311"></path><path d="M257 69L245 101L280 106Z" fill="#ffffff" stroke="#fca311"></path><path d="M238 131L210 114L219 148Z" fill="#ffffff" stroke="#fca311"></path><path d="M158 161L155 216L181 212Z" fill="#f1f1f1" stroke="#fca311"></path><path d="M716 214L688 230L739 247Z" fill="#f1f1f1" stroke="#fca311"></path><path d="M684 282L688 230L632 250Z" fill="#ffffff" stroke="#fca311"></path><path d="M297 564L333 511L313 509Z" fill="#ffffff" stroke="#fca311"></path><path d="M466 600L488 569L456 553Z" fill="#f5f5f5" stroke="#fca311"></path><path d="M688 230L667 165L638 210Z" fill="#ffffff" stroke="#fca311"></path><path d="M595 135L602 87L554 130Z" fill="#f1f1f1" stroke="#fca311"></path><path d="M316 0L295 58L341 56Z" fill="#ffffff" stroke="#fca311"></path><path d="M341 56L295 58L348 83Z" fill="#fcfcfc" stroke="#fca311"></path><path d="M639 110L602 87L595 135Z" fill="#ffffff" stroke="#fca311"></path><path d="M110 358L151 341L96 313Z" fill="#ffffff" stroke="#fca311"></path><path d="M166 309L151 341L186 361Z" fill="#ffffff" stroke="#fca311"></path><path d="M598 538L556 511L556 530Z" fill="#eeeeee" stroke="#fca311"></path><path d="M598 538L607 515L556 511Z" fill="#ffffff" stroke="#fca311"></path><path d="M158 161L181 212L219 148Z" fill="#ffffff" stroke="#fca311"></path><path d="M181 212L155 216L186 231Z" fill="#ffffff" stroke="#fca311"></path><path d="M667 165L639 110L595 135Z" fill="#eeeeee" stroke="#fca311"></path><path d="M197 57L210 114L245 101Z" fill="#ffffff" stroke="#fca311"></path><path d="M245 101L210 114L238 131Z" fill="#ffffff" stroke="#fca311"></path><path d="M155 216L148 231L186 231Z" fill="#f1f1f1" stroke="#fca311"></path><path d="M295 58L257 69L280 106Z" fill="#f5f5f5" stroke="#fca311"></path><path d="M182 465L211 495L198 419Z" fill="#eeeeee" stroke="#fca311"></path><path d="M198 419L211 495L268 462Z" fill="#ffffff" stroke="#fca311"></path><path d="M266 562L297 564L313 509Z" fill="#fcfcfc" stroke="#fca311"></path><path d="M569 600L598 538L556 530Z" fill="#ffffff" stroke="#fca311"></path><path d="M607 515L665 488L650 452Z" fill="#ffffff" stroke="#fca311"></path><path d="M266 562L313 509L261 491Z" fill="#ffffff" stroke="#fca311"></path><path d="M347 562L411 600L412 566Z" fill="#ffffff" stroke="#fca311"></path><path d="M412 566L466 600L456 553Z" fill="#ffffff" stroke="#fca311"></path><path d="M161 446L182 465L198 419Z" fill="#fcfcfc" stroke="#fca311"></path><path d="M582 33L548 32L602 87Z" fill="#ffffff" stroke="#fca311"></path><path d="M602 87L548 32L539 107Z" fill="#f5f5f5" stroke="#fca311"></path><path d="M491 41L431 0L440 48Z" fill="#f1f1f1" stroke="#fca311"></path><path d="M342 600L411 600L347 562Z" fill="#ffffff" stroke="#fca311"></path><path d="M488 569L569 600L556 530Z" fill="#f1f1f1" stroke="#fca311"></path><path d="M411 600L466 600L412 566Z" fill="#f5f5f5" stroke="#fca311"></path><path d="M505 0L431 0L491 41Z" fill="#f8f8f8" stroke="#fca311"></path><path d="M295 58L253 0L257 69Z" fill="#ffffff" stroke="#fca311"></path><path d="M137 390L198 419L186 361Z" fill="#ffffff" stroke="#fca311"></path><path d="M151 537L214 546L211 495Z" fill="#ffffff" stroke="#fca311"></path><path d="M739 247L688 230L684 282Z" fill="#ffffff" stroke="#fca311"></path><path d="M688 230L716 214L667 165Z" fill="#ffffff" stroke="#fca311"></path><path d="M667 165L684 113L639 110Z" fill="#f5f5f5" stroke="#fca311"></path><path d="M110 358L137 390L151 341Z" fill="#ffffff" stroke="#fca311"></path><path d="M151 341L137 390L186 361Z" fill="#ffffff" stroke="#fca311"></path><path d="M635 543L665 488L607 515Z" fill="#ffffff" stroke="#fca311"></path><path d="M650 452L709 411L653 388Z" fill="#f8f8f8" stroke="#fca311"></path><path d="M683 335L732 348L684 282Z" fill="#f8f8f8" stroke="#fca311"></path><path d="M142 85L158 161L210 114Z" fill="#ffffff" stroke="#fca311"></path><path d="M210 114L158 161L219 148Z" fill="#f1f1f1" stroke="#fca311"></path><path d="M87 193L117 245L148 231Z" fill="#ffffff" stroke="#fca311"></path><path d="M692 469L709 411L650 452Z" fill="#f5f5f5" stroke="#fca311"></path><path d="M431 0L388 0L440 48Z" fill="#fcfcfc" stroke="#fca311"></path><path d="M214 546L266 562L261 491Z" fill="#ffffff" stroke="#fca311"></path><path d="M297 564L342 600L347 562Z" fill="#ffffff" stroke="#fca311"></path><path d="M214 546L261 491L211 495Z" fill="#ffffff" stroke="#fca311"></path><path d="M466 600L497 600L488 569Z" fill="#ffffff" stroke="#fca311"></path><path d="M709 411L732 348L683 335Z" fill="#fcfcfc" stroke="#fca311"></path><path d="M592 0L582 33L667 37Z" fill="#ffffff" stroke="#fca311"></path><path d="M548 32L505 0L491 41Z" fill="#fcfcfc" stroke="#fca311"></path><path d="M582 33L602 87L667 37Z" fill="#f8f8f8" stroke="#fca311"></path><path d="M295 600L342 600L297 564Z" fill="#ffffff" stroke="#fca311"></path><path d="M569 0L505 0L548 32Z" fill="#ffffff" stroke="#fca311"></path><path d="M388 0L345 0L341 56Z" fill="#f5f5f5" stroke="#fca311"></path><path d="M665 488L692 469L650 452Z" fill="#ffffff" stroke="#fca311"></path><path d="M788 311L763 296L732 348Z" fill="#eeeeee" stroke="#fca311"></path><path d="M711 496L692 469L665 488Z" fill="#fcfcfc" stroke="#fca311"></path><path d="M87 193L148 231L155 216Z" fill="#f8f8f8" stroke="#fca311"></path><path d="M148 231L117 245L166 309Z" fill="#ffffff" stroke="#fca311"></path><path d="M763 296L739 247L684 282Z" fill="#f8f8f8" stroke="#fca311"></path><path d="M739 247L732 211L716 214Z" fill="#ffffff" stroke="#fca311"></path><path d="M716 214L719 145L667 165Z" fill="#ffffff" stroke="#fca311"></path><path d="M719 145L684 113L667 165Z" fill="#f8f8f8" stroke="#fca311"></path><path d="M599 600L635 543L598 538Z" fill="#eeeeee" stroke="#fca311"></path><path d="M598 538L635 543L607 515Z" fill="#ffffff" stroke="#fca311"></path><path d="M345 0L316 0L341 56Z" fill="#f1f1f1" stroke="#fca311"></path><path d="M257 69L197 57L245 101Z" fill="#ffffff" stroke="#fca311"></path><path d="M96 313L151 341L166 309Z" fill="#ffffff" stroke="#fca311"></path><path d="M137 390L110 453L161 446Z" fill="#ffffff" stroke="#fca311"></path><path d="M139 510L211 495L182 465Z" fill="#f1f1f1" stroke="#fca311"></path><path d="M266 562L295 600L297 564Z" fill="#ffffff" stroke="#fca311"></path><path d="M139 510L182 465L161 446Z" fill="#f1f1f1" stroke="#fca311"></path><path d="M242 600L295 600L266 562Z" fill="#f5f5f5" stroke="#fca311"></path><path d="M117 245L96 313L166 309Z" fill="#ffffff" stroke="#fca311"></path><path d="M497 600L569 600L488 569Z" fill="#ffffff" stroke="#fca311"></path><path d="M732 211L719 145L716 214Z" fill="#ffffff" stroke="#fca311"></path><path d="M592 0L569 0L582 33Z" fill="#f1f1f1" stroke="#fca311"></path><path d="M582 33L569 0L548 32Z" fill="#f5f5f5" stroke="#fca311"></path><path d="M602 87L639 110L667 37Z" fill="#ffffff" stroke="#fca311"></path><path d="M253 0L197 57L257 69Z" fill="#ffffff" stroke="#fca311"></path><path d="M158 161L87 193L155 216Z" fill="#ffffff" stroke="#fca311"></path><path d="M739 247L780 234L732 211Z" fill="#ffffff" stroke="#fca311"></path><path d="M732 211L756 151L719 145Z" fill="#f8f8f8" stroke="#fca311"></path><path d="M732 348L763 296L684 282Z" fill="#ffffff" stroke="#fca311"></path><path d="M759 385L732 348L709 411Z" fill="#ffffff" stroke="#fca311"></path><path d="M49 338L99 383L110 358Z" fill="#f5f5f5" stroke="#fca311"></path><path d="M110 358L99 383L137 390Z" fill="#fcfcfc" stroke="#fca311"></path><path d="M736 462L709 411L692 469Z" fill="#f8f8f8" stroke="#fca311"></path><path d="M736 462L759 385L709 411Z" fill="#ffffff" stroke="#fca311"></path><path d="M667 37L639 110L684 113Z" fill="#eeeeee" stroke="#fca311"></path><path d="M695 557L665 488L635 543Z" fill="#ffffff" stroke="#fca311"></path><path d="M695 557L711 496L665 488Z" fill="#ffffff" stroke="#fca311"></path><path d="M569 600L599 600L598 538Z" fill="#f5f5f5" stroke="#fca311"></path><path d="M316 0L253 0L295 58Z" fill="#ffffff" stroke="#fca311"></path><path d="M711 496L736 462L692 469Z" fill="#ffffff" stroke="#fca311"></path><path d="M99 383L110 453L137 390Z" fill="#ffffff" stroke="#fca311"></path><path d="M195 600L242 600L214 546Z" fill="#ffffff" stroke="#fca311"></path><path d="M214 546L242 600L266 562Z" fill="#f5f5f5" stroke="#fca311"></path><path d="M110 453L139 510L161 446Z" fill="#ffffff" stroke="#fca311"></path><path d="M92 157L87 193L158 161Z" fill="#ffffff" stroke="#fca311"></path><path d="M64 237L64 312L96 313Z" fill="#ffffff" stroke="#fca311"></path><path d="M96 313L49 338L110 358Z" fill="#ffffff" stroke="#fca311"></path><path d="M697 39L667 37L684 113Z" fill="#ffffff" stroke="#fca311"></path><path d="M150 52L142 85L197 57Z" fill="#eeeeee" stroke="#fca311"></path><path d="M197 57L142 85L210 114Z" fill="#ffffff" stroke="#fca311"></path><path d="M788 311L780 234L763 296Z" fill="#f5f5f5" stroke="#fca311"></path><path d="M763 296L780 234L739 247Z" fill="#f8f8f8" stroke="#fca311"></path><path d="M719 145L744 116L684 113Z" fill="#eeeeee" stroke="#fca311"></path><path d="M794 335L732 348L759 385Z" fill="#fcfcfc" stroke="#fca311"></path><path d="M794 335L788 311L732 348Z" fill="#ffffff" stroke="#fca311"></path><path d="M806 191L756 151L732 211Z" fill="#eeeeee" stroke="#fca311"></path><path d="M117 519L151 537L139 510Z" fill="#ffffff" stroke="#fca311"></path><path d="M139 510L151 537L211 495Z" fill="#f8f8f8" stroke="#fca311"></path><path d="M64 237L96 313L117 245Z" fill="#ffffff" stroke="#fca311"></path><path d="M99 383L60 414L110 453Z" fill="#fcfcfc" stroke="#fca311"></path><path d="M599 600L635 600L635 543Z" fill="#ffffff" stroke="#fca311"></path><path d="M711 496L731 515L736 462Z" fill="#ffffff" stroke="#fca311"></path><path d="M99 97L92 157L158 161Z" fill="#f1f1f1" stroke="#fca311"></path><path d="M87 193L64 237L117 245Z" fill="#ffffff" stroke="#fca311"></path><path d="M756 151L744 116L719 145Z" fill="#eeeeee" stroke="#fca311"></path><path d="M46 201L64 237L87 193Z" fill="#ffffff" stroke="#fca311"></path><path d="M810 394L794 335L759 385Z" fill="#ffffff" stroke="#fca311"></path><path d="M830 198L806 191L780 234Z" fill="#f8f8f8" stroke="#fca311"></path><path d="M635 600L695 557L635 543Z" fill="#ffffff" stroke="#fca311"></path><path d="M807 442L810 394L759 385Z" fill="#ffffff" stroke="#fca311"></path><path d="M695 557L731 515L711 496Z" fill="#fcfcfc" stroke="#fca311"></path><path d="M142 85L99 97L158 161Z" fill="#fcfcfc" stroke="#fca311"></path><path d="M203 0L150 52L197 57Z" fill="#f8f8f8" stroke="#fca311"></path><path d="M253 0L203 0L197 57Z" fill="#eeeeee" stroke="#fca311"></path><path d="M744 116L697 39L684 113Z" fill="#ffffff" stroke="#fca311"></path><path d="M667 37L664 0L592 0Z" fill="#ffffff" stroke="#fca311"></path><path d="M151 537L195 600L214 546Z" fill="#fcfcfc" stroke="#fca311"></path><path d="M110 453L117 519L139 510Z" fill="#eeeeee" stroke="#fca311"></path><path d="M151 537L145 600L195 600Z" fill="#ffffff" stroke="#fca311"></path><path d="M65 445L117 519L110 453Z" fill="#eeeeee" stroke="#fca311"></path><path d="M0 296L49 338L64 312Z" fill="#ffffff" stroke="#fca311"></path><path d="M64 312L49 338L96 313Z" fill="#ffffff" stroke="#fca311"></path><path d="M49 338L60 414L99 383Z" fill="#ffffff" stroke="#fca311"></path><path d="M697 39L664 0L667 37Z" fill="#f1f1f1" stroke="#fca311"></path><path d="M104 67L142 85L150 52Z" fill="#f8f8f8" stroke="#fca311"></path><path d="M104 67L99 97L142 85Z" fill="#ffffff" stroke="#fca311"></path><path d="M37 156L46 201L87 193Z" fill="#f5f5f5" stroke="#fca311"></path><path d="M60 414L65 445L110 453Z" fill="#ffffff" stroke="#fca311"></path><path d="M37 156L87 193L92 157Z" fill="#f8f8f8" stroke="#fca311"></path><path d="M0 262L0 296L64 312Z" fill="#ffffff" stroke="#fca311"></path><path d="M807 442L759 385L736 462Z" fill="#ffffff" stroke="#fca311"></path><path d="M830 198L780 234L843 252Z" fill="#f5f5f5" stroke="#fca311"></path><path d="M780 234L788 311L843 252Z" fill="#ffffff" stroke="#fca311"></path><path d="M780 234L806 191L732 211Z" fill="#f5f5f5" stroke="#fca311"></path><path d="M756 151L786 109L744 116Z" fill="#ffffff" stroke="#fca311"></path><path d="M744 116L760 33L697 39Z" fill="#f1f1f1" stroke="#fca311"></path><path d="M135 0L104 67L150 52Z" fill="#ffffff" stroke="#fca311"></path><path d="M47 89L37 156L92 157Z" fill="#eeeeee" stroke="#fca311"></path><path d="M811 497L736 462L731 515Z" fill="#ffffff" stroke="#fca311"></path><path d="M811 497L807 442L736 462Z" fill="#eeeeee" stroke="#fca311"></path><path d="M54 544L108 553L117 519Z" fill="#f8f8f8" stroke="#fca311"></path><path d="M117 519L108 553L151 537Z" fill="#ffffff" stroke="#fca311"></path><path d="M635 600L703 600L695 557Z" fill="#ffffff" stroke="#fca311"></path><path d="M695 557L759 551L731 515Z" fill="#ffffff" stroke="#fca311"></path><path d="M802 140L786 109L756 151Z" fill="#ffffff" stroke="#fca311"></path><path d="M697 39L716 0L664 0Z" fill="#fcfcfc" stroke="#fca311"></path><path d="M806 191L802 140L756 151Z" fill="#ffffff" stroke="#fca311"></path><path d="M108 553L145 600L151 537Z" fill="#ffffff" stroke="#fca311"></path><path d="M47 89L92 157L99 97Z" fill="#ffffff" stroke="#fca311"></path><path d="M0 262L64 312L64 237Z" fill="#ffffff" stroke="#fca311"></path><path d="M734 600L759 551L695 557Z" fill="#fcfcfc" stroke="#fca311"></path><path d="M807 442L832 395L810 394Z" fill="#f8f8f8" stroke="#fca311"></path><path d="M810 394L848 343L794 335Z" fill="#fcfcfc" stroke="#fca311"></path><path d="M806 191L836 160L802 140Z" fill="#ffffff" stroke="#fca311"></path><path d="M846 446L832 395L807 442Z" fill="#ffffff" stroke="#fca311"></path><path d="M843 252L788 311L862 291Z" fill="#f5f5f5" stroke="#fca311"></path><path d="M760 33L716 0L697 39Z" fill="#ffffff" stroke="#fca311"></path><path d="M203 0L135 0L150 52Z" fill="#ffffff" stroke="#fca311"></path><path d="M104 67L47 89L99 97Z" fill="#fcfcfc" stroke="#fca311"></path><path d="M848 343L788 311L794 335Z" fill="#ffffff" stroke="#fca311"></path><path d="M832 395L848 343L810 394Z" fill="#eeeeee" stroke="#fca311"></path><path d="M812 600L780 536L759 551Z" fill="#ffffff" stroke="#fca311"></path><path d="M759 551L780 536L731 515Z" fill="#ffffff" stroke="#fca311"></path><path d="M0 262L64 237L46 201Z" fill="#fcfcfc" stroke="#fca311"></path><path d="M49 338L0 358L60 414Z" fill="#f8f8f8" stroke="#fca311"></path><path d="M60 414L0 435L65 445Z" fill="#ffffff" stroke="#fca311"></path><path d="M65 445L43 519L117 519Z" fill="#f1f1f1" stroke="#fca311"></path><path d="M783 64L744 116L786 109Z" fill="#f1f1f1" stroke="#fca311"></path><path d="M783 64L760 33L744 116Z" fill="#f1f1f1" stroke="#fca311"></path><path d="M783 64L786 109L831 98Z" fill="#eeeeee" stroke="#fca311"></path><path d="M831 98L786 109L802 140Z" fill="#ffffff" stroke="#fca311"></path><path d="M0 184L0 262L46 201Z" fill="#f5f5f5" stroke="#fca311"></path><path d="M703 600L734 600L695 557Z" fill="#ffffff" stroke="#fca311"></path><path d="M0 296L0 358L49 338Z" fill="#f5f5f5" stroke="#fca311"></path><path d="M846 512L811 497L780 536Z" fill="#f8f8f8" stroke="#fca311"></path><path d="M780 536L811 497L731 515Z" fill="#f8f8f8" stroke="#fca311"></path><path d="M900 390L900 331L848 343Z" fill="#ffffff" stroke="#fca311"></path><path d="M830 198L836 160L806 191Z" fill="#ffffff" stroke="#fca311"></path><path d="M900 163L836 160L830 198Z" fill="#eeeeee" stroke="#fca311"></path><path d="M39 45L47 89L104 67Z" fill="#eeeeee" stroke="#fca311"></path><path d="M37 156L0 184L46 201Z" fill="#ffffff" stroke="#fca311"></path><path d="M848 343L862 291L788 311Z" fill="#ffffff" stroke="#fca311"></path><path d="M843 252L900 210L830 198Z" fill="#ffffff" stroke="#fca311"></path><path d="M900 303L862 291L900 331Z" fill="#f1f1f1" stroke="#fca311"></path><path d="M791 0L744 0L760 33Z" fill="#ffffff" stroke="#fca311"></path><path d="M760 33L744 0L716 0Z" fill="#ffffff" stroke="#fca311"></path><path d="M0 358L0 406L60 414Z" fill="#ffffff" stroke="#fca311"></path><path d="M0 494L43 519L65 445Z" fill="#f5f5f5" stroke="#fca311"></path><path d="M108 553L85 600L145 600Z" fill="#f1f1f1" stroke="#fca311"></path><path d="M0 163L0 184L37 156Z" fill="#f5f5f5" stroke="#fca311"></path><path d="M811 497L846 446L807 442Z" fill="#f5f5f5" stroke="#fca311"></path><path d="M43 519L54 544L117 519Z" fill="#ffffff" stroke="#fca311"></path><path d="M0 406L0 435L60 414Z" fill="#f5f5f5" stroke="#fca311"></path><path d="M43 519L0 533L54 544Z" fill="#f8f8f8" stroke="#fca311"></path><path d="M0 112L0 163L37 156Z" fill="#ffffff" stroke="#fca311"></path><path d="M135 0L92 0L104 67Z" fill="#ffffff" stroke="#fca311"></path><path d="M47 89L0 112L37 156Z" fill="#fcfcfc" stroke="#fca311"></path><path d="M836 160L831 98L802 140Z" fill="#ffffff" stroke="#fca311"></path><path d="M783 64L791 0L760 33Z" fill="#ffffff" stroke="#fca311"></path><path d="M900 93L831 98L836 160Z" fill="#ffffff" stroke="#fca311"></path><path d="M54 544L85 600L108 553Z" fill="#f1f1f1" stroke="#fca311"></path><path d="M92 0L39 45L104 67Z" fill="#ffffff" stroke="#fca311"></path><path d="M0 39L0 112L47 89Z" fill="#ffffff" stroke="#fca311"></path><path d="M0 435L0 494L65 445Z" fill="#ffffff" stroke="#fca311"></path><path d="M54 544L53 600L85 600Z" fill="#eeeeee" stroke="#fca311"></path><path d="M863 551L846 512L780 536Z" fill="#eeeeee" stroke="#fca311"></path><path d="M811 497L846 512L846 446Z" fill="#f8f8f8" stroke="#fca311"></path><path d="M900 331L862 291L848 343Z" fill="#f8f8f8" stroke="#fca311"></path><path d="M843 45L791 0L783 64Z" fill="#f5f5f5" stroke="#fca311"></path><path d="M848 343L832 395L900 390Z" fill="#f1f1f1" stroke="#fca311"></path><path d="M862 291L900 240L843 252Z" fill="#f5f5f5" stroke="#fca311"></path><path d="M900 390L832 395L846 446Z" fill="#ffffff" stroke="#fca311"></path><path d="M900 303L900 240L862 291Z" fill="#ffffff" stroke="#fca311"></path><path d="M831 98L843 45L783 64Z" fill="#f5f5f5" stroke="#fca311"></path><path d="M0 600L53 600L54 544Z" fill="#ffffff" stroke="#fca311"></path><path d="M900 459L900 390L846 446Z" fill="#ffffff" stroke="#fca311"></path><path d="M900 240L900 210L843 252Z" fill="#ffffff" stroke="#fca311"></path><path d="M0 494L0 533L43 519Z" fill="#f5f5f5" stroke="#fca311"></path><path d="M734 600L812 600L759 551Z" fill="#ffffff" stroke="#fca311"></path><path d="M846 512L900 459L846 446Z" fill="#f5f5f5" stroke="#fca311"></path><path d="M900 93L843 45L831 98Z" fill="#ffffff" stroke="#fca311"></path><path d="M900 210L900 163L830 198Z" fill="#ffffff" stroke="#fca311"></path><path d="M92 0L35 0L39 45Z" fill="#f8f8f8" stroke="#fca311"></path><path d="M39 45L0 39L47 89Z" fill="#ffffff" stroke="#fca311"></path><path d="M900 500L900 459L846 512Z" fill="#fcfcfc" stroke="#fca311"></path><path d="M35 0L0 39L39 45Z" fill="#f5f5f5" stroke="#fca311"></path><path d="M812 600L863 551L780 536Z" fill="#f8f8f8" stroke="#fca311"></path><path d="M900 0L836 0L843 45Z" fill="#ffffff" stroke="#fca311"></path><path d="M843 45L836 0L791 0Z" fill="#fcfcfc" stroke="#fca311"></path><path d="M863 551L900 500L846 512Z" fill="#ffffff" stroke="#fca311"></path><path d="M900 163L900 93L836 160Z" fill="#ffffff" stroke="#fca311"></path><path d="M812 600L852 600L863 551Z" fill="#ffffff" stroke="#fca311"></path><path d="M863 551L900 559L900 500Z" fill="#f5f5f5" stroke="#fca311"></path><path d="M0 533L0 600L54 544Z" fill="#ffffff" stroke="#fca311"></path><path d="M35 0L0 0L0 39Z" fill="#ffffff" stroke="#fca311"></path><path d="M900 93L900 48L843 45Z" fill="#ffffff" stroke="#fca311"></path><path d="M900 600L900 559L863 551Z" fill="#fcfcfc" stroke="#fca311"></path><path d="M852 600L900 600L863 551Z" fill="#f5f5f5" stroke="#fca311"></path><path d="M900 48L900 0L843 45Z" fill="#f1f1f1" stroke="#fca311"></path></g></svg>