<svg id="visual" viewBox="0 0 675 500" width="675" height="500" xmlns="http://www.w3.org/2000/svg" xmlns:xlink="http://www.w3.org/1999/xlink" version="1.1"><path d="M0 111L36 111L36 71L71 71L71 116L107 116L107 71L142 71L142 131L178 131L178 91L213 91L213 121L249 121L249 121L284 121L284 71L320 71L320 116L355 116L355 141L391 141L391 106L426 106L426 91L462 91L462 86L497 86L497 71L533 71L533 86L568 86L568 111L604 111L604 111L639 111L639 116L675 116L675 91L675 0L675 0L639 0L639 0L604 0L604 0L568 0L568 0L533 0L533 0L497 0L497 0L462 0L462 0L426 0L426 0L391 0L391 0L355 0L355 0L320 0L320 0L284 0L284 0L249 0L249 0L213 0L213 0L178 0L178 0L142 0L142 0L107 0L107 0L71 0L71 0L36 0L36 0L0 0Z" fill="#0a4191"></path><path d="M0 141L36 141L36 101L71 101L71 131L107 131L107 101L142 101L142 151L178 151L178 106L213 106L213 151L249 151L249 156L284 156L284 86L320 86L320 136L355 136L355 171L391 171L391 121L426 121L426 106L462 106L462 101L497 101L497 101L533 101L533 116L568 116L568 126L604 126L604 141L639 141L639 151L675 151L675 106L675 89L675 114L639 114L639 109L604 109L604 109L568 109L568 84L533 84L533 69L497 69L497 84L462 84L462 89L426 89L426 104L391 104L391 139L355 139L355 114L320 114L320 69L284 69L284 119L249 119L249 119L213 119L213 89L178 89L178 129L142 129L142 69L107 69L107 114L71 114L71 69L36 69L36 109L0 109Z" fill="#564198"></path><path d="M0 181L36 181L36 146L71 146L71 186L107 186L107 161L142 161L142 186L178 186L178 141L213 141L213 196L249 196L249 201L284 201L284 146L320 146L320 171L355 171L355 226L391 226L391 191L426 191L426 176L462 176L462 161L497 161L497 141L533 141L533 166L568 166L568 196L604 196L604 181L639 181L639 196L675 196L675 151L675 104L675 149L639 149L639 139L604 139L604 124L568 124L568 114L533 114L533 99L497 99L497 99L462 99L462 104L426 104L426 119L391 119L391 169L355 169L355 134L320 134L320 84L284 84L284 154L249 154L249 149L213 149L213 104L178 104L178 149L142 149L142 99L107 99L107 129L71 129L71 99L36 99L36 139L0 139Z" fill="#843f99"></path><path d="M0 211L36 211L36 166L71 166L71 211L107 211L107 191L142 191L142 216L178 216L178 161L213 161L213 216L249 216L249 226L284 226L284 161L320 161L320 191L355 191L355 246L391 246L391 216L426 216L426 191L462 191L462 181L497 181L497 161L533 161L533 196L568 196L568 226L604 226L604 206L639 206L639 211L675 211L675 181L675 149L675 194L639 194L639 179L604 179L604 194L568 194L568 164L533 164L533 139L497 139L497 159L462 159L462 174L426 174L426 189L391 189L391 224L355 224L355 169L320 169L320 144L284 144L284 199L249 199L249 194L213 194L213 139L178 139L178 184L142 184L142 159L107 159L107 184L71 184L71 144L36 144L36 179L0 179Z" fill="#ac3b92"></path><path d="M0 346L36 346L36 326L71 326L71 291L107 291L107 326L142 326L142 296L178 296L178 281L213 281L213 316L249 316L249 311L284 311L284 296L320 296L320 286L355 286L355 326L391 326L391 366L426 366L426 321L462 321L462 296L497 296L497 311L533 311L533 351L568 351L568 306L604 306L604 286L639 286L639 286L675 286L675 281L675 179L675 209L639 209L639 204L604 204L604 224L568 224L568 194L533 194L533 159L497 159L497 179L462 179L462 189L426 189L426 214L391 214L391 244L355 244L355 189L320 189L320 159L284 159L284 224L249 224L249 214L213 214L213 159L178 159L178 214L142 214L142 189L107 189L107 209L71 209L71 164L36 164L36 209L0 209Z" fill="#cd3a85"></path><path d="M0 371L36 371L36 381L71 381L71 326L107 326L107 356L142 356L142 351L178 351L178 311L213 311L213 356L249 356L249 361L284 361L284 341L320 341L320 316L355 316L355 351L391 351L391 396L426 396L426 351L462 351L462 336L497 336L497 346L533 346L533 381L568 381L568 341L604 341L604 341L639 341L639 341L675 341L675 336L675 279L675 284L639 284L639 284L604 284L604 304L568 304L568 349L533 349L533 309L497 309L497 294L462 294L462 319L426 319L426 364L391 364L391 324L355 324L355 284L320 284L320 294L284 294L284 309L249 309L249 314L213 314L213 279L178 279L178 294L142 294L142 324L107 324L107 289L71 289L71 324L36 324L36 344L0 344Z" fill="#e74174"></path><path d="M0 406L36 406L36 421L71 421L71 366L107 366L107 391L142 391L142 391L178 391L178 336L213 336L213 381L249 381L249 381L284 381L284 386L320 386L320 341L355 341L355 371L391 371L391 421L426 421L426 386L462 386L462 376L497 376L497 371L533 371L533 411L568 411L568 361L604 361L604 381L639 381L639 371L675 371L675 386L675 334L675 339L639 339L639 339L604 339L604 339L568 339L568 379L533 379L533 344L497 344L497 334L462 334L462 349L426 349L426 394L391 394L391 349L355 349L355 314L320 314L320 339L284 339L284 359L249 359L249 354L213 354L213 309L178 309L178 349L142 349L142 354L107 354L107 324L71 324L71 379L36 379L36 369L0 369Z" fill="#f9525f"></path><path d="M0 451L36 451L36 456L71 456L71 446L107 446L107 451L142 451L142 436L178 436L178 426L213 426L213 431L249 431L249 431L284 431L284 436L320 436L320 441L355 441L355 436L391 436L391 461L426 461L426 431L462 431L462 431L497 431L497 431L533 431L533 456L568 456L568 451L604 451L604 446L639 446L639 436L675 436L675 451L675 384L675 369L639 369L639 379L604 379L604 359L568 359L568 409L533 409L533 369L497 369L497 374L462 374L462 384L426 384L426 419L391 419L391 369L355 369L355 339L320 339L320 384L284 384L284 379L249 379L249 379L213 379L213 334L178 334L178 389L142 389L142 389L107 389L107 364L71 364L71 419L36 419L36 404L0 404Z" fill="#ff6b49"></path><path d="M0 481L36 481L36 481L71 481L71 476L107 476L107 476L142 476L142 471L178 471L178 466L213 466L213 471L249 471L249 466L284 466L284 476L320 476L320 481L355 481L355 481L391 481L391 486L426 486L426 476L462 476L462 471L497 471L497 466L533 466L533 481L568 481L568 481L604 481L604 466L639 466L639 471L675 471L675 476L675 449L675 434L639 434L639 444L604 444L604 449L568 449L568 454L533 454L533 429L497 429L497 429L462 429L462 429L426 429L426 459L391 459L391 434L355 434L355 439L320 439L320 434L284 434L284 429L249 429L249 429L213 429L213 424L178 424L178 434L142 434L142 449L107 449L107 444L71 444L71 454L36 454L36 449L0 449Z" fill="#ff8631"></path><path d="M0 501L36 501L36 501L71 501L71 501L107 501L107 501L142 501L142 501L178 501L178 501L213 501L213 501L249 501L249 501L284 501L284 501L320 501L320 501L355 501L355 501L391 501L391 501L426 501L426 501L462 501L462 501L497 501L497 501L533 501L533 501L568 501L568 501L604 501L604 501L639 501L639 501L675 501L675 501L675 474L675 469L639 469L639 464L604 464L604 479L568 479L568 479L533 479L533 464L497 464L497 469L462 469L462 474L426 474L426 484L391 484L391 479L355 479L355 479L320 479L320 474L284 474L284 464L249 464L249 469L213 469L213 464L178 464L178 469L142 469L142 474L107 474L107 474L71 474L71 479L36 479L36 479L0 479Z" fill="#fca311"></path></svg>