<svg id="visual" viewBox="0 0 900 50" width="900" height="50" xmlns="http://www.w3.org/2000/svg"
    xmlns:xlink="http://www.w3.org/1999/xlink" version="1.1">
    <rect x="0" y="0" width="900" height="50" fill="#efefef"></rect>
    <path
        d="M0 7L13.7 8C27.3 9 54.7 11 82 13.7C109.3 16.3 136.7 19.7 163.8 22C191 24.3 218 25.7 245.2 26C272.3 26.3 299.7 25.7 327 23.3C354.3 21 381.7 17 409 15C436.3 13 463.7 13 491 13C518.3 13 545.7 13 573 13.3C600.3 13.7 627.7 14.3 654.8 15.7C682 17 709 19 736.2 19.8C763.3 20.7 790.7 20.3 818 19.3C845.3 18.3 872.7 16.7 886.3 15.8L900 15L900 51L886.3 51C872.7 51 845.3 51 818 51C790.7 51 763.3 51 736.2 51C709 51 682 51 654.8 51C627.7 51 600.3 51 573 51C545.7 51 518.3 51 491 51C463.7 51 436.3 51 409 51C381.7 51 354.3 51 327 51C299.7 51 272.3 51 245.2 51C218 51 191 51 163.8 51C136.7 51 109.3 51 82 51C54.7 51 27.3 51 13.7 51L0 51Z"
        fill="#d4e5ff"></path>
    <path
        d="M0 18L13.7 20C27.3 22 54.7 26 82 27.3C109.3 28.7 136.7 27.3 163.8 26C191 24.7 218 23.3 245.2 24C272.3 24.7 299.7 27.3 327 27.3C354.3 27.3 381.7 24.7 409 24.7C436.3 24.7 463.7 27.3 491 27.7C518.3 28 545.7 26 573 25.2C600.3 24.3 627.7 24.7 654.8 23.8C682 23 709 21 736.2 20.8C763.3 20.7 790.7 22.3 818 23.7C845.3 25 872.7 26 886.3 26.5L900 27L900 51L886.3 51C872.7 51 845.3 51 818 51C790.7 51 763.3 51 736.2 51C709 51 682 51 654.8 51C627.7 51 600.3 51 573 51C545.7 51 518.3 51 491 51C463.7 51 436.3 51 409 51C381.7 51 354.3 51 327 51C299.7 51 272.3 51 245.2 51C218 51 191 51 163.8 51C136.7 51 109.3 51 82 51C54.7 51 27.3 51 13.7 51L0 51Z"
        fill="#93acdb"></path>
    <path
        d="M0 39L13.7 37.5C27.3 36 54.7 33 82 31.7C109.3 30.3 136.7 30.7 163.8 32C191 33.3 218 35.7 245.2 37C272.3 38.3 299.7 38.7 327 38.2C354.3 37.7 381.7 36.3 409 34.5C436.3 32.7 463.7 30.3 491 31C518.3 31.7 545.7 35.3 573 37.2C600.3 39 627.7 39 654.8 39C682 39 709 39 736.2 37.2C763.3 35.3 790.7 31.7 818 31.5C845.3 31.3 872.7 34.7 886.3 36.3L900 38L900 51L886.3 51C872.7 51 845.3 51 818 51C790.7 51 763.3 51 736.2 51C709 51 682 51 654.8 51C627.7 51 600.3 51 573 51C545.7 51 518.3 51 491 51C463.7 51 436.3 51 409 51C381.7 51 354.3 51 327 51C299.7 51 272.3 51 245.2 51C218 51 191 51 163.8 51C136.7 51 109.3 51 82 51C54.7 51 27.3 51 13.7 51L0 51Z"
        fill="#5675b7"></path>
    <path
        d="M0 40L13.7 40.7C27.3 41.3 54.7 42.7 82 43.2C109.3 43.7 136.7 43.3 163.8 42.8C191 42.3 218 41.7 245.2 41.2C272.3 40.7 299.7 40.3 327 39.5C354.3 38.7 381.7 37.3 409 38.3C436.3 39.3 463.7 42.7 491 44C518.3 45.3 545.7 44.7 573 44.2C600.3 43.7 627.7 43.3 654.8 43.2C682 43 709 43 736.2 43.7C763.3 44.3 790.7 45.7 818 45.5C845.3 45.3 872.7 43.7 886.3 42.8L900 42L900 51L886.3 51C872.7 51 845.3 51 818 51C790.7 51 763.3 51 736.2 51C709 51 682 51 654.8 51C627.7 51 600.3 51 573 51C545.7 51 518.3 51 491 51C463.7 51 436.3 51 409 51C381.7 51 354.3 51 327 51C299.7 51 272.3 51 245.2 51C218 51 191 51 163.8 51C136.7 51 109.3 51 82 51C54.7 51 27.3 51 13.7 51L0 51Z"
        fill="#0a4191"></path>
</svg>