<svg id="visual" viewBox="0 0 900 50" width="900" height="50" xmlns="http://www.w3.org/2000/svg" xmlns:xlink="http://www.w3.org/1999/xlink" version="1.1"><rect x="0" y="0" width="900" height="50" fill="#efefef"></rect><path d="M0 25L13.7 22.5C27.3 20 54.7 15 82 14C109.3 13 136.7 16 163.8 16.3C191 16.7 218 14.3 245.2 15.5C272.3 16.7 299.7 21.3 327 21.5C354.3 21.7 381.7 17.3 409 16.8C436.3 16.3 463.7 19.7 491 19.5C518.3 19.3 545.7 15.7 573 15.3C600.3 15 627.7 18 654.8 18.3C682 18.7 709 16.3 736.2 16C763.3 15.7 790.7 17.3 818 16.3C845.3 15.3 872.7 11.7 886.3 9.8L900 8L900 51L886.3 51C872.7 51 845.3 51 818 51C790.7 51 763.3 51 736.2 51C709 51 682 51 654.8 51C627.7 51 600.3 51 573 51C545.7 51 518.3 51 491 51C463.7 51 436.3 51 409 51C381.7 51 354.3 51 327 51C299.7 51 272.3 51 245.2 51C218 51 191 51 163.8 51C136.7 51 109.3 51 82 51C54.7 51 27.3 51 13.7 51L0 51Z" fill="#d4e5ff"></path><path d="M0 17L13.7 17.5C27.3 18 54.7 19 82 21.5C109.3 24 136.7 28 163.8 29.5C191 31 218 30 245.2 27.7C272.3 25.3 299.7 21.7 327 20.8C354.3 20 381.7 22 409 23.5C436.3 25 463.7 26 491 26.3C518.3 26.7 545.7 26.3 573 25.5C600.3 24.7 627.7 23.3 654.8 21.7C682 20 709 18 736.2 18.3C763.3 18.7 790.7 21.3 818 21.8C845.3 22.3 872.7 20.7 886.3 19.8L900 19L900 51L886.3 51C872.7 51 845.3 51 818 51C790.7 51 763.3 51 736.2 51C709 51 682 51 654.8 51C627.7 51 600.3 51 573 51C545.7 51 518.3 51 491 51C463.7 51 436.3 51 409 51C381.7 51 354.3 51 327 51C299.7 51 272.3 51 245.2 51C218 51 191 51 163.8 51C136.7 51 109.3 51 82 51C54.7 51 27.3 51 13.7 51L0 51Z" fill="#93acdb"></path><path d="M0 40L13.7 37.5C27.3 35 54.7 30 82 27.7C109.3 25.3 136.7 25.7 163.8 28.2C191 30.7 218 35.3 245.2 35.8C272.3 36.3 299.7 32.7 327 32.7C354.3 32.7 381.7 36.3 409 38C436.3 39.7 463.7 39.3 491 37.5C518.3 35.7 545.7 32.3 573 32.5C600.3 32.7 627.7 36.3 654.8 36.7C682 37 709 34 736.2 33.5C763.3 33 790.7 35 818 35.7C845.3 36.3 872.7 35.7 886.3 35.3L900 35L900 51L886.3 51C872.7 51 845.3 51 818 51C790.7 51 763.3 51 736.2 51C709 51 682 51 654.8 51C627.7 51 600.3 51 573 51C545.7 51 518.3 51 491 51C463.7 51 436.3 51 409 51C381.7 51 354.3 51 327 51C299.7 51 272.3 51 245.2 51C218 51 191 51 163.8 51C136.7 51 109.3 51 82 51C54.7 51 27.3 51 13.7 51L0 51Z" fill="#5675b7"></path><path d="M0 44L13.7 43.5C27.3 43 54.7 42 82 41C109.3 40 136.7 39 163.8 39.5C191 40 218 42 245.2 43.5C272.3 45 299.7 46 327 46.5C354.3 47 381.7 47 409 46C436.3 45 463.7 43 491 41.7C518.3 40.3 545.7 39.7 573 38.8C600.3 38 627.7 37 654.8 38.2C682 39.3 709 42.7 736.2 44.3C763.3 46 790.7 46 818 44.5C845.3 43 872.7 40 886.3 38.5L900 37L900 51L886.3 51C872.7 51 845.3 51 818 51C790.7 51 763.3 51 736.2 51C709 51 682 51 654.8 51C627.7 51 600.3 51 573 51C545.7 51 518.3 51 491 51C463.7 51 436.3 51 409 51C381.7 51 354.3 51 327 51C299.7 51 272.3 51 245.2 51C218 51 191 51 163.8 51C136.7 51 109.3 51 82 51C54.7 51 27.3 51 13.7 51L0 51Z" fill="#0a4191"></path></svg>